<svg width="22" height="25" viewBox="0 0 22 25" fill="none" xmlns="http://www.w3.org/2000/svg">
<path d="M18.5 4.75024L17.4989 19.7664C17.4113 21.0815 17.3674 21.7391 17.0834 22.2377C16.8332 22.6767 16.456 23.0296 16.0014 23.25C15.485 23.5002 14.8259 23.5002 13.5077 23.5002H8.49221C7.17409 23.5002 6.51502 23.5002 5.99861 23.25C5.54396 23.0296 5.16674 22.6767 4.91665 22.2377C4.63259 21.7391 4.58875 21.0815 4.50107 19.7664L3.5 4.75024M1 4.75024H21M16 4.75024L15.6617 3.73533C15.3339 2.75181 15.1699 2.26004 14.8659 1.89647C14.5974 1.57541 14.2526 1.32689 13.8631 1.17372C13.422 1.00024 12.9037 1.00024 11.867 1.00024H10.133C9.09625 1.00024 8.578 1.00024 8.13689 1.17372C7.7474 1.32689 7.4026 1.57541 7.13411 1.89647C6.83006 2.26004 6.66615 2.75181 6.3383 3.73533L6 4.75024M13.5 9.75024V18.5002M8.5 9.75024V18.5002" stroke="#826DD0" stroke-width="2" stroke-linecap="round" stroke-linejoin="round"/>
</svg>
